HIERARCHY
ROOT mixamorig:Hips
{
	OFFSET -0.000008 104.274872 1.554316
	CHANNELS 6 Xposition Yposition Zposition Xrotation Yrotation Zrotation
	JOINT mixamorig:Spine
	{
		OFFSET -0.000005 10.181595 0.131519
		CHANNELS 6 Xposition Yposition Zposition Xrotation Yrotation Zrotation
		JOINT mixamorig:Spine1
		{
			OFFSET -0.000000 9.893959 -1.470707
			CHANNELS 6 Xposition Yposition Zposition Xrotation Yrotation Zrotation
			JOINT mixamorig:Spine2
			{
				OFFSET -0.000000 9.220757 -1.370641
				CHANNELS 6 Xposition Yposition Zposition Xrotation Yrotation Zrotation
				JOINT mixamorig:Neck
				{
					OFFSET 0.000001 16.740417 -2.049036
					CHANNELS 6 Xposition Yposition Zposition Xrotation Yrotation Zrotation
					JOINT mixamorig:Head
					{
						OFFSET 0.000000 9.617874 1.685006
						CHANNELS 6 Xposition Yposition Zposition Xrotation Yrotation Zrotation
						JOINT mixamorig:HeadTop_End
						{
							OFFSET 0.000002 22.037354 7.501101
							CHANNELS 6 Xposition Yposition Zposition Xrotation Yrotation Zrotation
							End Site
							{
								OFFSET 0.000168 2310.654297 -282.823242
							}
						}
					}
				}
				JOINT mixamorig:RightShoulder
				{
					OFFSET -4.569970 11.014908 -2.160885
					CHANNELS 6 Xposition Yposition Zposition Xrotation Yrotation Zrotation
					JOINT mixamorig:RightArm
					{
						OFFSET -10.592851 -0.524811 -2.232101
						CHANNELS 6 Xposition Yposition Zposition Xrotation Yrotation Zrotation
						JOINT mixamorig:RightForeArm
						{
							OFFSET -27.841511 0.000031 -0.000004
							CHANNELS 6 Xposition Yposition Zposition Xrotation Yrotation Zrotation
							JOINT mixamorig:RightHand
							{
								OFFSET -28.328831 -0.000015 0.000015
								CHANNELS 6 Xposition Yposition Zposition Xrotation Yrotation Zrotation
								JOINT mixamorig:RightHandThumb1
								{
									OFFSET -2.464806 -1.573990 2.681852
									CHANNELS 6 Xposition Yposition Zposition Xrotation Yrotation Zrotation
									JOINT mixamorig:RightHandThumb2
									{
										OFFSET -3.215179 -1.872803 1.924282
										CHANNELS 6 Xposition Yposition Zposition Xrotation Yrotation Zrotation
										JOINT mixamorig:RightHandThumb3
										{
											OFFSET -2.654831 -1.527969 1.512609
											CHANNELS 6 Xposition Yposition Zposition Xrotation Yrotation Zrotation
											JOINT mixamorig:RightHandThumb4
											{
												OFFSET -2.018814 -1.152008 1.108052
												CHANNELS 6 Xposition Yposition Zposition Xrotation Yrotation Zrotation
												End Site
												{
													OFFSET -188.809540 -114.533607 132.431396
												}
											}
										}
									}
								}
								JOINT mixamorig:RightHandIndex1
								{
									OFFSET -9.108284 -0.517868 2.259835
									CHANNELS 6 Xposition Yposition Zposition Xrotation Yrotation Zrotation
									JOINT mixamorig:RightHandIndex2
									{
										OFFSET -3.699989 0.000000 0.001215
										CHANNELS 6 Xposition Yposition Zposition Xrotation Yrotation Zrotation
										JOINT mixamorig:RightHandIndex3
										{
											OFFSET -2.850006 0.000031 -0.000522
											CHANNELS 6 Xposition Yposition Zposition Xrotation Yrotation Zrotation
											JOINT mixamorig:RightHandIndex4
											{
												OFFSET -2.772186 -0.000015 -0.000020
												CHANNELS 6 Xposition Yposition Zposition Xrotation Yrotation Zrotation
												End Site
												{
													OFFSET -277.218445 0.000000 -0.050231
												}
											}
										}
									}
								}
								JOINT mixamorig:RightHandMiddle1
								{
									OFFSET -9.532516 -0.000031 -0.000023
									CHANNELS 6 Xposition Yposition Zposition Xrotation Yrotation Zrotation
									JOINT mixamorig:RightHandMiddle2
									{
										OFFSET -3.700005 -0.000015 0.003713
										CHANNELS 6 Xposition Yposition Zposition Xrotation Yrotation Zrotation
										JOINT mixamorig:RightHandMiddle3
										{
											OFFSET -2.949974 0.000015 -0.002054
											CHANNELS 6 Xposition Yposition Zposition Xrotation Yrotation Zrotation
											JOINT mixamorig:RightHandMiddle4
											{
												OFFSET -2.946640 0.000000 -0.000156
												CHANNELS 6 Xposition Yposition Zposition Xrotation Yrotation Zrotation
												End Site
												{
													OFFSET -294.664337 0.000000 -0.113670
												}
											}
										}
									}
								}
								JOINT mixamorig:RightHandRing1
								{
									OFFSET -9.103600 -0.043076 -1.865134
									CHANNELS 6 Xposition Yposition Zposition Xrotation Yrotation Zrotation
									JOINT mixamorig:RightHandRing2
									{
										OFFSET -3.379288 0.000000 -0.001055
										CHANNELS 6 Xposition Yposition Zposition Xrotation Yrotation Zrotation
										JOINT mixamorig:RightHandRing3
										{
											OFFSET -2.889687 -0.000015 0.000379
											CHANNELS 6 Xposition Yposition Zposition Xrotation Yrotation Zrotation
											JOINT mixamorig:RightHandRing4
											{
												OFFSET -2.638809 -0.000015 0.000941
												CHANNELS 6 Xposition Yposition Zposition Xrotation Yrotation Zrotation
												End Site
												{
													OFFSET -263.880371 0.000000 0.516020
												}
											}
										}
									}
								}
								JOINT mixamorig:RightHandPinky1
								{
									OFFSET -8.076683 -0.486710 -3.806280
									CHANNELS 6 Xposition Yposition Zposition Xrotation Yrotation Zrotation
									JOINT mixamorig:RightHandPinky2
									{
										OFFSET -3.600014 -0.000015 -0.003747
										CHANNELS 6 Xposition Yposition Zposition Xrotation Yrotation Zrotation
										JOINT mixamorig:RightHandPinky3
										{
											OFFSET -2.099983 0.000000 -0.005739
											CHANNELS 6 Xposition Yposition Zposition Xrotation Yrotation Zrotation
											JOINT mixamorig:RightHandPinky4
											{
												OFFSET -2.115768 -0.000031 -0.003680
												CHANNELS 6 Xposition Yposition Zposition Xrotation Yrotation Zrotation
												End Site
												{
													OFFSET -211.577087 0.000000 -0.350686
												}
											}
										}
									}
								}
							}
						}
					}
				}
				JOINT mixamorig:LeftShoulder
				{
					OFFSET 4.570447 11.014725 -2.160855
					CHANNELS 6 Xposition Yposition Zposition Xrotation Yrotation Zrotation
					JOINT mixamorig:LeftArm
					{
						OFFSET 10.592371 -0.524597 -2.232119
						CHANNELS 6 Xposition Yposition Zposition Xrotation Yrotation Zrotation
						JOINT mixamorig:LeftForeArm
						{
							OFFSET 27.841532 -0.000031 0.000026
							CHANNELS 6 Xposition Yposition Zposition Xrotation Yrotation Zrotation
							JOINT mixamorig:LeftHand
							{
								OFFSET 28.328846 -0.000061 0.000022
								CHANNELS 6 Xposition Yposition Zposition Xrotation Yrotation Zrotation
								JOINT mixamorig:LeftHandThumb1
								{
									OFFSET 2.466141 -1.576172 2.681732
									CHANNELS 6 Xposition Yposition Zposition Xrotation Yrotation Zrotation
									JOINT mixamorig:LeftHandThumb2
									{
										OFFSET 3.217812 -1.872070 1.916482
										CHANNELS 6 Xposition Yposition Zposition Xrotation Yrotation Zrotation
										JOINT mixamorig:LeftHandThumb3
										{
											OFFSET 2.656029 -1.528778 1.514513
											CHANNELS 6 Xposition Yposition Zposition Xrotation Yrotation Zrotation
											JOINT mixamorig:LeftHandThumb4
											{
												OFFSET 2.020889 -1.154053 1.115139
												CHANNELS 6 Xposition Yposition Zposition Xrotation Yrotation Zrotation
												End Site
												{
													OFFSET 190.885437 -115.081749 130.048782
												}
											}
										}
									}
								}
								JOINT mixamorig:LeftHandIndex1
								{
									OFFSET 9.109314 -0.518021 2.259871
									CHANNELS 6 Xposition Yposition Zposition Xrotation Yrotation Zrotation
									JOINT mixamorig:LeftHandIndex2
									{
										OFFSET 3.699989 0.000000 -0.000322
										CHANNELS 6 Xposition Yposition Zposition Xrotation Yrotation Zrotation
										JOINT mixamorig:LeftHandIndex3
										{
											OFFSET 2.850006 0.000000 0.000352
											CHANNELS 6 Xposition Yposition Zposition Xrotation Yrotation Zrotation
											JOINT mixamorig:LeftHandIndex4
											{
												OFFSET 2.774864 -0.000031 -0.000027
												CHANNELS 6 Xposition Yposition Zposition Xrotation Yrotation Zrotation
												End Site
												{
													OFFSET 277.486267 0.000000 -0.009857
												}
											}
										}
									}
								}
								JOINT mixamorig:LeftHandMiddle1
								{
									OFFSET 9.533394 0.000061 0.000044
									CHANNELS 6 Xposition Yposition Zposition Xrotation Yrotation Zrotation
									JOINT mixamorig:LeftHandMiddle2
									{
										OFFSET 3.699989 -0.000015 -0.000231
										CHANNELS 6 Xposition Yposition Zposition Xrotation Yrotation Zrotation
										JOINT mixamorig:LeftHandMiddle3
										{
											OFFSET 2.949997 -0.000015 -0.000059
											CHANNELS 6 Xposition Yposition Zposition Xrotation Yrotation Zrotation
											JOINT mixamorig:LeftHandMiddle4
											{
												OFFSET 2.952896 0.000031 0.000063
												CHANNELS 6 Xposition Yposition Zposition Xrotation Yrotation Zrotation
												End Site
												{
													OFFSET 295.289337 0.000000 0.022810
												}
											}
										}
									}
								}
								JOINT mixamorig:LeftHandRing1
								{
									OFFSET 9.104523 -0.042999 -1.865074
									CHANNELS 6 Xposition Yposition Zposition Xrotation Yrotation Zrotation
									JOINT mixamorig:LeftHandRing2
									{
										OFFSET 3.150009 -0.000031 0.000043
										CHANNELS 6 Xposition Yposition Zposition Xrotation Yrotation Zrotation
										JOINT mixamorig:LeftHandRing3
										{
											OFFSET 2.949982 -0.000015 0.000040
											CHANNELS 6 Xposition Yposition Zposition Xrotation Yrotation Zrotation
											JOINT mixamorig:LeftHandRing4
											{
												OFFSET 2.644348 0.000000 0.000057
												CHANNELS 6 Xposition Yposition Zposition Xrotation Yrotation Zrotation
												End Site
												{
													OFFSET 264.434631 0.000000 0.012105
												}
											}
										}
									}
								}
								JOINT mixamorig:LeftHandPinky1
								{
									OFFSET 8.077789 -0.486847 -3.806259
									CHANNELS 6 Xposition Yposition Zposition Xrotation Yrotation Zrotation
									JOINT mixamorig:LeftHandPinky2
									{
										OFFSET 3.599953 0.000031 0.014727
										CHANNELS 6 Xposition Yposition Zposition Xrotation Yrotation Zrotation
										JOINT mixamorig:LeftHandPinky3
										{
											OFFSET 2.100021 0.000015 0.007705
											CHANNELS 6 Xposition Yposition Zposition Xrotation Yrotation Zrotation
											JOINT mixamorig:LeftHandPinky4
											{
												OFFSET 2.125504 0.000031 0.007517
												CHANNELS 6 Xposition Yposition Zposition Xrotation Yrotation Zrotation
												End Site
												{
													OFFSET 212.550781 0.000000 0.625752
												}
											}
										}
									}
								}
							}
						}
					}
				}
			}
		}
	}
	JOINT mixamorig:RightUpLeg
	{
		OFFSET -8.207787 -6.751648 -1.599560
		CHANNELS 6 Xposition Yposition Zposition Xrotation Yrotation Zrotation
		JOINT mixamorig:RightLeg
		{
			OFFSET -0.000002 -44.370117 0.345942
			CHANNELS 6 Xposition Yposition Zposition Xrotation Yrotation Zrotation
			JOINT mixamorig:RightFoot
			{
				OFFSET 0.000003 -44.423679 -3.043532
				CHANNELS 6 Xposition Yposition Zposition Xrotation Yrotation Zrotation
				JOINT mixamorig:RightToeBase
				{
					OFFSET -0.000002 -8.728671 10.710558
					CHANNELS 6 Xposition Yposition Zposition Xrotation Yrotation Zrotation
					JOINT mixamorig:RightToe_End
					{
						OFFSET -0.000001 -0.000679 9.278119
						CHANNELS 6 Xposition Yposition Zposition Xrotation Yrotation Zrotation
						End Site
						{
							OFFSET 0.000000 -0.067690 927.812134
						}
					}
				}
			}
		}
	}
	JOINT mixamorig:LeftUpLeg
	{
		OFFSET 8.207793 -6.751686 -1.599556
		CHANNELS 6 Xposition Yposition Zposition Xrotation Yrotation Zrotation
		JOINT mixamorig:LeftLeg
		{
			OFFSET -0.000004 -44.370014 0.346954
			CHANNELS 6 Xposition Yposition Zposition Xrotation Yrotation Zrotation
			JOINT mixamorig:LeftFoot
			{
				OFFSET -0.000001 -44.423672 -3.044401
				CHANNELS 6 Xposition Yposition Zposition Xrotation Yrotation Zrotation
				JOINT mixamorig:LeftToeBase
				{
					OFFSET -0.000002 -8.728669 10.710558
					CHANNELS 6 Xposition Yposition Zposition Xrotation Yrotation Zrotation
					JOINT mixamorig:LeftToe_End
					{
						OFFSET -0.000003 -0.000679 9.278133
						CHANNELS 6 Xposition Yposition Zposition Xrotation Yrotation Zrotation
						End Site
						{
							OFFSET 0.000000 -0.068021 927.813477
						}
					}
				}
			}
		}
	}
}
MOTION
Frames: 3
Frame Time: 0.033333
0.000006 104.270477 1.554256 0.000010 0.000003 -0.000113 -0.000005 10.181587 0.131522 0.000001 -0.000003 0.000084 -0.000000 9.893967 -1.470711 0.000001 0.000000 -0.000000 -0.000000 9.220802 -1.370642 0.000000 -0.000000 -0.000000 0.000001 16.740433 -2.049030 0.000000 -0.000000 -0.000000 0.000000 9.617859 1.685014 0.000000 0.000000 0.000000 0.000002 22.037384 7.501101 0.000000 -0.000000 0.000000 -4.569968 11.014880 -2.160881 0.000008 0.000001 -0.000038 -10.592875 -0.524767 -2.231914 76.323519 29.127673 -23.078651 -27.841492 0.000006 0.000563 -45.094664 109.724797 61.074404 -28.328804 0.000004 0.000027 -0.000320 -0.000043 0.000006 -2.464415 -1.573823 2.682330 -43.364256 -156.523702 -0.108354 -3.215248 -1.872517 1.924612 148.469721 33.438731 25.734640 -2.654961 -1.527848 1.513053 147.556197 27.586755 -29.276667 -2.018841 -1.152002 1.108069 -0.000004 0.000003 0.000002 -9.108378 -0.517555 2.260123 99.911488 15.462435 -18.407350 -3.700069 0.000309 0.001505 96.454579 13.147019 -14.675730 -2.850079 0.000367 -0.000266 94.147519 11.160991 -11.992732 -2.772153 -0.000001 -0.000021 -0.000002 -0.000001 -0.000001 -9.532589 0.000275 0.000261 96.377569 15.610493 -17.583706 -3.700072 0.000329 0.003984 97.081331 12.055282 -13.524511 -2.950044 0.000343 -0.001808 97.023834 11.697040 -13.205857 -2.946638 0.000001 -0.000157 0.000000 -0.000000 -0.000001 -9.103719 -0.042777 -1.864843 95.621057 19.140343 -21.024485 -3.379349 0.000299 -0.000799 98.424228 11.424296 -13.246338 -2.889771 0.000335 0.000674 102.761576 8.781975 -11.039677 -2.638803 -0.000002 0.000939 -0.000001 -0.000000 0.000001 -8.076782 -0.486423 -3.806041 80.503273 23.353259 -19.712466 -3.600036 0.000256 -0.003537 81.924731 12.434727 -10.480443 -2.100019 0.000304 -0.005509 84.990831 6.727373 -5.960388 -2.115772 -0.000026 -0.003681 -0.000005 0.000001 -0.000002 4.570446 11.014691 -2.160851 -0.000018 0.000010 -0.000021 10.592522 -0.524540 -2.232389 63.809116 -65.611009 43.730740 27.841715 -0.000088 -0.000088 63.649153 -110.106782 83.216498 28.328833 -0.000013 0.000036 0.000023 -0.000090 -0.000000 2.466155 -1.576159 2.681881 -239.337588 152.946418 198.111795 3.217807 -1.871997 1.916541 -104.484423 41.850912 48.375464 2.656001 -1.528835 1.514627 -166.591073 39.023838 102.682188 2.020875 -1.154073 1.115143 0.000000 0.000005 0.000006 9.109230 -0.517729 2.260097 -130.649265 -12.517100 -26.836990 3.699894 0.000268 -0.000106 49.643942 -166.517963 151.310560 2.849913 0.000303 0.000584 232.195614 -14.050946 -28.241444 2.774882 -0.000016 -0.000017 -0.000002 -0.000000 -0.000001 9.533413 0.000055 0.000117 -189.162922 -21.112386 -226.581718 3.700030 0.000185 -0.000411 -99.553504 -173.664267 185.357974 2.950025 0.000048 -0.000166 -322.415200 1.758989 -0.597801 2.952881 -0.000030 0.000066 -0.000000 0.000000 -0.000000 9.104657 -0.042938 -1.865065 -198.824266 -20.245755 -265.741951 3.149990 0.000190 -0.000128 -109.610159 170.131338 -186.968055 2.949953 0.000052 -0.000114 33.286363 12.432449 -3.729557 2.644318 0.000029 0.000064 0.000003 -0.000000 -0.000000 8.077946 -0.486657 -3.806271 -210.345306 -18.509751 -295.931087 3.599939 0.000177 0.014531 66.508079 8.182970 -5.138474 2.099980 0.000047 0.007565 35.531884 14.873015 -4.720308 2.125509 -0.000014 0.007516 -0.000000 0.000003 -0.000002 -8.207786 -6.751667 -1.599560 -0.077001 -0.000003 0.000080 -0.000002 -44.370110 0.345938 0.153719 -0.000000 -0.000000 0.000000 -44.423679 -3.043532 -0.076700 0.000000 -0.000002 -0.000006 -8.728667 10.710559 -0.000009 -0.000000 -0.000000 -0.000001 -0.000679 9.278123 0.000000 -0.000000 -0.000000 8.207792 -6.751710 -1.599556 -0.074518 -0.000003 0.000081 -0.000002 -44.370014 0.346960 0.148822 0.000002 0.000000 -0.000001 -44.423664 -3.044403 -0.074314 0.000000 -0.000002 -0.000004 -8.728671 10.710558 0.000007 -0.000000 -0.000000 0.000000 -0.000680 9.278137 -0.000000 0.000000 -0.000001 
0.000006 104.270477 1.554256 0.000010 0.000003 -0.000113 -0.000005 10.181587 0.131522 0.000001 -0.000003 0.000084 -0.000000 9.893967 -1.470711 0.000001 0.000000 -0.000000 -0.000000 9.220802 -1.370642 0.000000 -0.000000 -0.000000 0.000001 16.740433 -2.049030 0.000000 -0.000000 -0.000000 0.000000 9.617859 1.685014 0.000000 0.000000 0.000000 0.000002 22.037384 7.501101 0.000000 -0.000000 0.000000 -4.569968 11.014880 -2.160881 0.000008 0.000001 -0.000038 -10.592874 -0.524762 -2.231897 76.490831 29.174719 -23.184208 -27.841511 0.000026 0.000564 -45.034767 109.523292 60.813409 -28.328815 0.000022 0.000027 -0.000321 -0.000044 0.000005 -2.464398 -1.573822 2.682338 -43.305722 -156.609790 0.043358 -3.215237 -1.872529 1.924627 149.258157 33.377062 23.456026 -2.654946 -1.527869 1.513071 147.556074 27.559858 -29.554048 -2.018827 -1.152000 1.108067 -0.000001 -0.000005 0.000002 -9.108367 -0.517550 2.260122 99.896571 15.510569 -18.459425 -3.700059 0.000302 0.001529 96.665058 12.994770 -14.559043 -2.850074 0.000374 -0.000270 94.057722 10.921930 -11.717782 -2.772169 -0.000000 -0.000017 -0.000001 0.000001 -0.000001 -9.532588 0.000271 0.000256 96.325564 15.512099 -17.458339 -3.700062 0.000336 0.003989 96.820691 11.740371 -13.109825 -2.950066 0.000348 -0.001794 96.605253 11.406352 -12.784503 -2.946602 -0.000010 -0.000153 -0.000001 -0.000002 0.000000 -9.103710 -0.042763 -1.864865 95.400715 18.567524 -20.319415 -3.379348 0.000308 -0.000777 98.505610 11.010894 -12.786868 -2.889772 0.000344 0.000647 102.947582 8.496763 -10.719015 -2.638808 0.000014 0.000941 -0.000001 0.000000 -0.000000 -8.076777 -0.486407 -3.806039 80.499257 22.780440 -19.221238 -3.600043 0.000260 -0.003544 82.055994 12.042222 -10.163623 -2.100005 0.000310 -0.005515 85.438522 6.512379 -5.809232 -2.115766 -0.000040 -0.003684 -0.000002 -0.000004 -0.000004 4.570446 11.014691 -2.160851 -0.000018 0.000010 -0.000021 10.592518 -0.524544 -2.232394 64.877973 -64.335546 43.577580 27.841715 -0.000076 -0.000078 63.822811 -109.687053 82.965584 28.328838 -0.000027 0.000030 0.000025 -0.000091 0.000000 2.466148 -1.576178 2.681877 -238.362291 152.237403 197.704975 3.217819 -1.871987 1.916547 -101.379268 43.801009 47.074500 2.655965 -1.528809 1.514617 -165.789947 41.897091 103.954878 2.020883 -1.154085 1.115159 -0.000000 0.000002 0.000003 9.109233 -0.517743 2.260091 -131.964610 -10.793391 -23.923812 3.699919 0.000284 -0.000126 47.685451 -168.227327 153.715661 2.849925 0.000318 0.000587 230.966781 -12.266774 -25.409364 2.774885 -0.000031 -0.000018 -0.000001 0.000000 0.000001 9.533297 0.000006 0.000133 -182.985044 -19.026897 -197.722802 3.700010 0.000169 -0.000390 -100.171015 -175.310793 183.921449 2.950013 0.000017 -0.000174 -324.871118 2.614237 -0.826909 2.952871 -0.000032 0.000052 -0.000003 -0.000002 -0.000002 9.104610 -0.043008 -1.865020 -189.570548 -17.303004 -237.625724 3.149957 0.000200 -0.000170 -108.427621 166.344804 -189.865052 2.949955 0.000053 -0.000093 31.664556 13.506361 -3.846307 2.644329 0.000015 0.000060 -0.000000 0.000003 0.000001 8.077919 -0.486724 -3.806219 -197.278307 -14.397211 -277.166536 3.599891 0.000167 0.014498 67.365746 13.562205 -8.857976 2.099960 0.000076 0.007543 37.796105 17.274259 -5.886789 2.125500 -0.000002 0.007512 0.000001 0.000000 -0.000002 -8.207786 -6.751667 -1.599560 -0.077001 -0.000003 0.000080 -0.000002 -44.370110 0.345938 0.153719 -0.000000 -0.000000 0.000000 -44.423679 -3.043532 -0.076700 0.000000 -0.000002 -0.000006 -8.728667 10.710559 -0.000009 -0.000000 -0.000000 -0.000001 -0.000679 9.278123 0.000000 -0.000000 -0.000000 8.207792 -6.751710 -1.599556 -0.074518 -0.000003 0.000081 -0.000002 -44.370014 0.346960 0.148822 0.000002 0.000000 -0.000001 -44.423664 -3.044403 -0.074314 0.000000 -0.000002 -0.000004 -8.728671 10.710558 0.000007 -0.000000 -0.000000 0.000000 -0.000680 9.278137 -0.000000 0.000000 -0.000001 
0.000006 104.270477 1.554256 0.000010 0.000003 -0.000113 -0.000005 10.181587 0.131522 0.000001 -0.000003 0.000084 -0.000000 9.893967 -1.470711 0.000001 0.000000 -0.000000 -0.000000 9.220802 -1.370642 0.000000 -0.000000 -0.000000 0.000001 16.740433 -2.049030 0.000000 -0.000000 -0.000000 0.000000 9.617859 1.685014 0.000000 0.000000 0.000000 0.000002 22.037384 7.501101 0.000000 -0.000000 0.000000 -4.569968 11.014880 -2.160881 0.000008 0.000001 -0.000038 -10.592870 -0.524772 -2.231888 76.854170 30.683911 -24.559339 -27.841507 0.000010 0.000556 -45.313920 107.884839 59.653506 -28.328808 0.000006 0.000027 -0.000324 -0.000046 0.000008 -2.464394 -1.573836 2.682342 -43.187621 -156.671398 0.324159 -3.215246 -1.872531 1.924619 149.167548 33.481092 24.461896 -2.654958 -1.527846 1.513054 147.707567 27.502776 -29.923349 -2.018845 -1.152014 1.108057 -0.000004 -0.000000 0.000000 -9.108385 -0.517555 2.260123 100.027922 15.587407 -18.592647 -3.700057 0.000305 0.001505 96.351962 13.106860 -14.604867 -2.850100 0.000371 -0.000272 93.474048 10.978583 -11.659706 -2.772172 0.000000 -0.000021 0.000000 0.000001 0.000000 -9.532581 0.000277 0.000260 96.164972 15.683224 -17.599941 -3.700065 0.000337 0.003989 96.678398 11.937294 -13.297853 -2.950052 0.000334 -0.001824 96.319895 11.498314 -12.823547 -2.946617 -0.000015 -0.000158 -0.000000 0.000000 0.000000 -9.103707 -0.042774 -1.864844 95.371072 19.006704 -20.788664 -3.379349 0.000309 -0.000783 98.206161 11.241551 -12.985586 -2.889756 0.000359 0.000667 102.683104 8.515105 -10.691550 -2.638800 -0.000002 0.000942 0.000000 0.000002 -0.000001 -8.076786 -0.486424 -3.806044 79.964665 23.449183 -19.610209 -3.600046 0.000260 -0.003543 81.611055 12.072389 -10.110549 -2.100005 0.000307 -0.005516 84.908144 6.350493 -5.607879 -2.115781 -0.000043 -0.003679 0.000001 0.000002 -0.000007 4.570446 11.014691 -2.160851 -0.000018 0.000010 -0.000021 10.592525 -0.524537 -2.232393 65.312072 -65.017547 44.434246 27.841722 -0.000079 -0.000080 63.514407 -108.425162 81.302255 28.328840 -0.000042 0.000031 0.000022 -0.000089 -0.000001 2.466150 -1.576176 2.681866 -237.139196 151.088265 197.196837 3.217810 -1.872019 1.916553 -100.358695 46.202699 47.362557 2.655972 -1.528816 1.514621 -169.917813 45.240800 111.319297 2.020895 -1.154065 1.115136 0.000001 0.000000 0.000001 9.109258 -0.517720 2.260074 -132.823615 -9.100845 -20.642638 3.699930 0.000288 -0.000114 47.208717 -170.206251 157.790757 2.849938 0.000315 0.000574 231.586744 -10.369993 -21.267170 2.774879 -0.000028 -0.000046 0.000000 0.000000 0.000000 9.533311 0.000024 0.000120 -182.585163 -15.175862 -199.287885 3.700016 0.000201 -0.000411 -97.262645 -177.487110 182.210992 2.950006 0.000005 -0.000159 -329.544825 2.967237 -0.807280 2.952873 -0.000015 0.000065 -0.000004 -0.000001 -0.000003 9.104633 -0.042961 -1.865035 -188.845319 -12.116855 -252.147088 3.149958 0.000210 -0.000152 -105.520515 163.080575 -192.899801 2.949980 0.000041 -0.000087 24.835461 13.430527 -2.970068 2.644329 0.000028 0.000057 -0.000001 -0.000002 -0.000001 8.077935 -0.486613 -3.806230 -195.617055 -7.289953 -305.975071 3.599909 0.000182 0.014520 66.590123 17.813231 -11.577823 2.099968 0.000065 0.007566 33.914966 18.347240 -5.589390 2.125495 -0.000012 0.007510 -0.000000 -0.000000 -0.000003 -8.207786 -6.751667 -1.599560 -0.077001 -0.000003 0.000080 -0.000002 -44.370110 0.345938 0.153719 -0.000000 -0.000000 0.000000 -44.423679 -3.043532 -0.076700 0.000000 -0.000002 -0.000006 -8.728667 10.710559 -0.000009 -0.000000 -0.000000 -0.000001 -0.000679 9.278123 0.000000 -0.000000 -0.000000 8.207792 -6.751710 -1.599556 -0.074518 -0.000003 0.000081 -0.000002 -44.370014 0.346960 0.148822 0.000002 0.000000 -0.000001 -44.423664 -3.044403 -0.074314 0.000000 -0.000002 -0.000004 -8.728671 10.710558 0.000007 -0.000000 -0.000000 0.000000 -0.000680 9.278137 -0.000000 0.000000 -0.000001 
